<mxfile host="app.diagrams.net" modified="2022-06-14T11:51:01.241Z" agent="5.0 (Windows NT 10.0; Win64; x64) AppleWebKit/537.36 (KHTML, like Gecko) Chrome/102.0.0.0 Safari/537.36" etag="dahPBVqX-crxrolOcaN0" version="20.0.1" type="github">
  <diagram id="sRhTLMIFn05hYmrrVlTc" name="Page-1">
    <mxGraphModel dx="1422" dy="772" grid="1" gridSize="10" guides="1" tooltips="1" connect="1" arrows="1" fold="1" page="1" pageScale="1" pageWidth="827" pageHeight="1169" math="0" shadow="0">
      <root>
        <mxCell id="0" />
        <mxCell id="1" parent="0" />
        <mxCell id="WssTTS_j7NomaJYCHzBM-1" value="" style="edgeStyle=orthogonalEdgeStyle;rounded=0;orthogonalLoop=1;jettySize=auto;html=1;sketch=1;" edge="1" parent="1" source="WssTTS_j7NomaJYCHzBM-4" target="WssTTS_j7NomaJYCHzBM-6">
          <mxGeometry relative="1" as="geometry" />
        </mxCell>
        <mxCell id="WssTTS_j7NomaJYCHzBM-2" value="" style="edgeStyle=orthogonalEdgeStyle;rounded=0;sketch=1;orthogonalLoop=1;jettySize=auto;html=1;" edge="1" parent="1" source="WssTTS_j7NomaJYCHzBM-4" target="WssTTS_j7NomaJYCHzBM-7">
          <mxGeometry relative="1" as="geometry">
            <Array as="points">
              <mxPoint x="195" y="160" />
              <mxPoint x="420" y="160" />
            </Array>
          </mxGeometry>
        </mxCell>
        <mxCell id="WssTTS_j7NomaJYCHzBM-3" value="是" style="edgeLabel;html=1;align=center;verticalAlign=middle;resizable=0;points=[];" vertex="1" connectable="0" parent="WssTTS_j7NomaJYCHzBM-2">
          <mxGeometry x="-0.7413" y="1" relative="1" as="geometry">
            <mxPoint as="offset" />
          </mxGeometry>
        </mxCell>
        <mxCell id="WssTTS_j7NomaJYCHzBM-4" value="&lt;font style=&quot;font-size: 14px;&quot;&gt;persist.enabled?&lt;/font&gt;" style="rhombus;whiteSpace=wrap;html=1;sketch=1;" vertex="1" parent="1">
          <mxGeometry x="120" y="30" width="150" height="80" as="geometry" />
        </mxCell>
        <mxCell id="WssTTS_j7NomaJYCHzBM-5" value="" style="edgeStyle=orthogonalEdgeStyle;rounded=0;sketch=1;orthogonalLoop=1;jettySize=auto;html=1;" edge="1" parent="1" source="WssTTS_j7NomaJYCHzBM-6" target="WssTTS_j7NomaJYCHzBM-12">
          <mxGeometry relative="1" as="geometry" />
        </mxCell>
        <mxCell id="WssTTS_j7NomaJYCHzBM-6" value="&lt;font style=&quot;font-size: 14px;&quot;&gt;获取本地存储内容&lt;br&gt;&lt;span style=&quot;background-color: rgb(255, 217, 102);&quot;&gt;getStorage()&lt;/span&gt;&lt;/font&gt;" style="whiteSpace=wrap;html=1;sketch=1;shadow=0;" vertex="1" parent="1">
          <mxGeometry x="135" y="200" width="120" height="60" as="geometry" />
        </mxCell>
        <mxCell id="WssTTS_j7NomaJYCHzBM-7" value="&lt;font style=&quot;font-size: 14px;&quot;&gt;监听state,变化时存储起来&lt;br&gt;&lt;span style=&quot;background-color: rgb(255, 217, 102);&quot;&gt;watch()&lt;/span&gt;&lt;br&gt;&lt;span style=&quot;background-color: rgb(255, 217, 102);&quot;&gt;setStorage()&lt;/span&gt;&lt;br&gt;&lt;/font&gt;" style="whiteSpace=wrap;html=1;sketch=1;" vertex="1" parent="1">
          <mxGeometry x="365" y="200" width="120" height="80" as="geometry" />
        </mxCell>
        <mxCell id="WssTTS_j7NomaJYCHzBM-8" value="" style="edgeStyle=orthogonalEdgeStyle;rounded=0;sketch=1;orthogonalLoop=1;jettySize=auto;html=1;" edge="1" parent="1" source="WssTTS_j7NomaJYCHzBM-12" target="WssTTS_j7NomaJYCHzBM-13">
          <mxGeometry relative="1" as="geometry" />
        </mxCell>
        <mxCell id="WssTTS_j7NomaJYCHzBM-9" value="是" style="edgeLabel;html=1;align=center;verticalAlign=middle;resizable=0;points=[];" vertex="1" connectable="0" parent="WssTTS_j7NomaJYCHzBM-8">
          <mxGeometry x="-0.137" y="-1" relative="1" as="geometry">
            <mxPoint as="offset" />
          </mxGeometry>
        </mxCell>
        <mxCell id="WssTTS_j7NomaJYCHzBM-10" value="" style="edgeStyle=orthogonalEdgeStyle;rounded=0;sketch=1;orthogonalLoop=1;jettySize=auto;html=1;" edge="1" parent="1" source="WssTTS_j7NomaJYCHzBM-12" target="WssTTS_j7NomaJYCHzBM-14">
          <mxGeometry relative="1" as="geometry" />
        </mxCell>
        <mxCell id="WssTTS_j7NomaJYCHzBM-11" value="否" style="edgeLabel;html=1;align=center;verticalAlign=middle;resizable=0;points=[];fontSize=14;" vertex="1" connectable="0" parent="WssTTS_j7NomaJYCHzBM-10">
          <mxGeometry x="-0.0591" relative="1" as="geometry">
            <mxPoint as="offset" />
          </mxGeometry>
        </mxCell>
        <mxCell id="WssTTS_j7NomaJYCHzBM-12" value="&lt;font style=&quot;font-size: 14px;&quot;&gt;本地存储是否有值？&lt;/font&gt;" style="rhombus;whiteSpace=wrap;html=1;sketch=1;shadow=0;" vertex="1" parent="1">
          <mxGeometry x="120" y="330" width="150" height="80" as="geometry" />
        </mxCell>
        <mxCell id="WssTTS_j7NomaJYCHzBM-13" value="&lt;font style=&quot;font-size: 14px;&quot;&gt;用本地存储的值更新state&lt;br&gt;&lt;span style=&quot;background-color: rgb(255, 217, 102);&quot;&gt;store.$patch()&lt;/span&gt;&lt;/font&gt;" style="whiteSpace=wrap;html=1;sketch=1;shadow=0;" vertex="1" parent="1">
          <mxGeometry x="135" y="500" width="120" height="60" as="geometry" />
        </mxCell>
        <mxCell id="WssTTS_j7NomaJYCHzBM-14" value="&lt;font style=&quot;font-size: 14px;&quot;&gt;state设为本地存储&lt;br&gt;&lt;span style=&quot;background-color: rgb(255, 217, 102);&quot;&gt;setStorage()&lt;/span&gt;&lt;/font&gt;" style="whiteSpace=wrap;html=1;sketch=1;shadow=0;" vertex="1" parent="1">
          <mxGeometry x="365" y="340" width="120" height="60" as="geometry" />
        </mxCell>
      </root>
    </mxGraphModel>
  </diagram>
</mxfile>
